<?xml version="1.0" encoding="UTF-8"?>
<svg id="Ebene_1" data-name="Ebene 1" xmlns="http://www.w3.org/2000/svg" viewBox="0 0 1050 1050">
  <defs>
    <style>
      .cls-1 {
        fill: #b7e4a7;
      }

      .cls-1, .cls-2, .cls-3, .cls-4 {
        stroke-width: 0px;
      }

      .cls-2 {
        fill: #7fc46e;
      }

      .cls-3 {
        fill: #00432b;
      }

      .cls-4 {
        fill: #484848;
      }
    </style>
  </defs>
  <path class="cls-4" d="M385.07,403.52c.77.5.96,1,0,1.5v-1.5Z"/>
  <g>
    <path class="cls-1" d="M734.81,347.87c-54.22-51.75-142.88-51.86-197.23-.26-.52.5-1.04,1-1.56,1.49-4.06,3.86-7.26,5.64-10.5,5.41-3.24.24-6.44-1.55-10.5-5.41-.52-.5-1.04-1-1.56-1.49-54.35-51.6-143.01-51.49-197.23.26-60.31,57.56-61.4,150.3-2.39,209.53,53.86,54.05,107.79,108.01,161.69,162.01,14.84,14.87,32.43,22.22,49.98,22.08,17.55.14,35.15-7.22,49.98-22.08,53.9-54,107.84-107.97,161.69-162.01,59.02-59.23,57.93-151.97-2.39-209.53Z"/>
    <path class="cls-3" d="M523.45,495.69c5.17-11.73,11.76-22.54,20.26-32.09,17.39-19.55,38.92-32.12,64.41-37.76,14.39-3.19,26.85-9.8,37.55-19.92,6.91-6.53,13.49-5.7,18.93,2.12,50.06,71.87,5.2,173.68-81.61,185.33-18.29,2.45-36.18,1.01-53.69-4.74-2.56-.84-4.65-.75-7.17.11-74.83,25.65-151.15-35.63-142.6-114.52,1.93-17.81,8.02-34.22,18.18-49.03,5.41-7.88,11.9-8.68,18.94-2.13,9.86,9.18,21.35,14.81,34.43,17.86,30.21,7.06,53.19,24.27,69.34,50.74.82,1.35,1.18,3.04,3.02,4.02Z"/>
    <path class="cls-2" d="M652.23,428.78c15.52,31.77,16.09,62.92-.59,93.6-19.91,36.6-60.19,55.81-101.32,49.33-4.03-.64-4.32-1.78-2.5-5.04,9.24-16.61,22.36-28.88,39.95-36.19,3.59-1.49,6.92-3.25,8.24-7.17,1.43-4.24.78-8.23-2.53-11.44-3.45-3.35-7.49-3.88-11.94-2.16-16.98,6.58-31.01,17.16-42.47,31.27-.87,1.07-1.69,2.17-3.23,4.16-.83-13.98,1.58-26.33,6.44-38.14,12.75-31.02,35.39-51.14,67.86-59.3,15.02-3.77,29.05-9.1,42.08-18.89Z"/>
    <path class="cls-2" d="M513.51,544.74c-1.86-.32-2.43-2.04-3.45-3.19-9.52-10.86-20.88-19.14-34.2-24.7-7.51-3.14-13.91-1.15-16.33,5.03-2.41,6.14.46,11.76,7.8,14.82,13.87,5.78,24.72,15.1,32.81,27.71,1.33,2.07,2.91,4.07,3.31,7.18-31.91,4.77-59.47-3.57-80.78-27.84-24.05-27.39-28.13-58.78-14.87-92.61,1.49-3.81,2.63-5.4,6.9-2.31,9.88,7.14,21.32,10.78,33.12,13.56,37.25,8.76,65.15,43.32,66.06,81.5,0,.27-.23.54-.38.85Z"/>
    <path class="cls-3" d="M768.96,372.92c8.57-1.5,11.5.01,15.39,7.93,30.22,61.5,19.12,136.55-28.02,186.48-16.18,17.13-33.15,33.51-49.8,50.19-39.52,39.62-78.96,79.31-118.61,118.79-32.82,32.67-81.77,35.73-117.57,7.63-2.26-1.77-4.45-3.67-6.48-5.7-55.82-55.88-111.72-111.68-167.36-167.74-26.6-26.79-41.73-59.37-46.57-96.8-.13-.98.28-2.25-1.16-2.68v-6.49c.68-.72.68-1.44,0-2.16v-25.94c2.61-5.92,2.49-12.43,3.89-18.62,15.48-68.02,69.13-118.48,137.65-128.54,48.61-7.13,92.15,5.22,130.37,36.11,3.24,2.62,4.85,2.75,8.3.08,55.33-42.88,115.03-50.03,178.88-21.29,7.52,3.38,8.76,6.13,7.95,14.51-2.03,7.7-7.89,10.4-15.84,6.86-13.35-5.95-26.93-11.19-41.44-13.41-38.08-5.82-73.24,1.7-105.14,23.61-6.39,4.38-12.34,9.28-17.92,14.69-7.06,6.85-13.84,6.92-20.89.16-25.02-24-54.94-37.19-89.24-40.05-22.56-1.88-44.47,2.06-65.39,10.73-31.25,12.96-54.81,34.72-71.08,64.23-9.03,16.39-14.04,34.16-16.2,52.85-3.04,26.31,1.48,51.27,12.1,75.29,6.33,14.31,14.85,27.27,25.83,38.31,56.19,56.56,112.55,112.95,168.92,169.34,24.89,24.9,65.98,24.88,90.93-.07,56.37-56.38,112.91-112.59,168.85-169.4,22.29-22.64,34.16-50.73,37.9-82.39,3.36-28.47-2.45-55.12-14.34-80.78-3.48-7.51-.93-13.99,6.07-15.74Z"/>
    <circle class="cls-3" cx="747.55" cy="344.85" r="11.53"/>
  </g>
</svg>